<svg width="24" height="24" viewBox="0 0 24 24" xmlns="http://www.w3.org/2000/svg">
<path fill-rule="evenodd" clip-rule="evenodd" d="M12 24C18.6274 24 24 18.6274 24 12C24 5.37258 18.6274 0 12 0C5.37258 0 0 5.37258 0 12C0 18.6274 5.37258 24 12 24Z" fill=""/>
<path fill-rule="evenodd" clip-rule="evenodd" d="M18.75 12.0009L14.0721 7.23129L13.9853 7.15485C13.6822 6.92552 13.2519 6.95091 12.9769 7.23108L12.9019 7.31959C12.6769 7.62854 12.7018 8.06705 12.9767 8.34733L15.8245 11.25H5.75L5.64823 11.2568C5.28215 11.3065 5 11.6203 5 12C5 12.4142 5.33579 12.75 5.75 12.75H15.8246L12.9768 15.6526L12.9018 15.7411C12.6769 16.0501 12.7019 16.4886 12.9768 16.7688C13.2793 17.0771 13.7696 17.0771 14.072 16.7688L18.75 12.0009Z" fill="currentColor"/>
</svg>
